<svg xmlns="http://www.w3.org/2000/svg" width="233.066" height="182.194" viewBox="0 0 233.066 182.194">
  <g id="noun_desktop_3536209" transform="translate(585.138 -248)">
    <path id="Caminho_15" data-name="Caminho 15" d="M232.887,8H10.179C7.331,8,5,9.952,5,12.338V155.49c0,2.386,2.331,4.338,5.179,4.338H99l-7.51,21.69H77.509c-2.849,0-5.179,1.952-5.179,4.338s2.331,4.338,5.179,4.338h88.047c2.849,0,5.179-1.952,5.179-4.338s-2.331-4.338-5.179-4.338H151.314l-7.51-21.69h89.083c2.849,0,5.179-1.952,5.179-4.338V12.338C238.066,9.952,235.735,8,232.887,8Zm-5.179,8.676V125.125H15.358V16.676Zm-87.27,164.842H102.629l7.51-21.69h23.307ZM15.358,151.152V133.8H227.707v17.352Zm109.8-11.712a3.977,3.977,0,0,1,1.554,3.037,2.288,2.288,0,0,1-.518,1.735c-.259.434-.518,1.084-1.036,1.3a5.6,5.6,0,0,1-1.554.868,5.164,5.164,0,0,1-4.143,0c-.518-.217-1.295-.434-1.554-.868a4.566,4.566,0,0,1-1.036-1.3,2.288,2.288,0,0,1-.518-1.735,3.977,3.977,0,0,1,1.554-3.037A5.7,5.7,0,0,1,125.158,139.44Z" transform="translate(-590.138 240)"/>
  </g>
</svg>
