<svg xmlns="http://www.w3.org/2000/svg" width="179.002" height="182.194" viewBox="0 0 179.002 182.194">
  <g id="noun_History_3384972" transform="translate(-2 -2.009)">
    <g id="Grupo_4" data-name="Grupo 4" transform="translate(2 2.009)">
      <g id="Grupo_3" data-name="Grupo 3">
        <path id="Caminho_21" data-name="Caminho 21" d="M26.115,31.87l11.069,8.3A2.767,2.767,0,0,0,40.5,35.745l-3.321-2.491a54.9,54.9,0,0,1,18.685,6.852c-1.162,1.287-2.319,2.579-3.415,3.921a2.748,2.748,0,0,0-.531,2.466l1.821,6.8-3.581-2.053a2.767,2.767,0,0,0-3.683.855c-1.464,2.183-2.7,4.151-3.777,6.022a23.486,23.486,0,0,0,5.2,29.724l-11.257,19.5a2.767,2.767,0,1,0,4.793,2.767L52.553,90.864a23.326,23.326,0,0,0,10.48,2.549A23.608,23.608,0,0,0,83.442,81.64l7.151-12.4a2.767,2.767,0,0,0-.327-3.218L85.5,60.65l10.792-2.895a2.767,2.767,0,0,0,1.68-1.287l8.211-14.218a2.768,2.768,0,1,0-4.8-2.767L93.747,52.708,79.734,56.463a2.767,2.767,0,0,0-1.353,4.508L84.8,68.208,78.649,78.859a17.96,17.96,0,0,1-23.262,7.25,272.424,272.424,0,0,1,59.2-69.5l-8,13.861a2.767,2.767,0,1,0,4.793,2.767l15.649-27.1a.056.056,0,0,1,.022-.053c.036-.066.047-.138.08-.208a2.822,2.822,0,0,0,.219-.722c.014-.1.014-.2.019-.307a2.909,2.909,0,0,0-.061-.675,2.765,2.765,0,0,0-.075-.3,2.74,2.74,0,0,0-.41-.78c-.019-.025-.025-.061-.047-.086V2.991l-.014-.022a2.767,2.767,0,0,0-.753-.609c-.086-.047-.174-.075-.263-.113a2.624,2.624,0,0,0-.659-.2,2.491,2.491,0,0,0-.318-.036,2.69,2.69,0,0,0-.681.061,2.626,2.626,0,0,0-.293.061.177.177,0,0,0-.105.022L97.882,11.641A106.02,106.02,0,0,0,77.739,21.6a2.767,2.767,0,0,0-1.284,2.435l.113,3.288-1.807-1.384a2.767,2.767,0,0,0-3.321-.019,106.656,106.656,0,0,0-11.667,10.1A60.383,60.383,0,0,0,37.8,27.742L40.081,26.6a2.768,2.768,0,0,0-2.474-4.953L26.538,27.18a2.767,2.767,0,0,0-.423,4.7Zm46.975-.244,4.774,3.62a2.767,2.767,0,0,0,4.428-2.3l-.263-7.5a100.577,100.577,0,0,1,17.752-8.6l10.554-3.874A277.837,277.837,0,0,0,50.8,83a17.951,17.951,0,0,1-3.321-22.138c.65-1.129,1.367-2.3,2.164-3.542l7.1,4.1A2.767,2.767,0,0,0,60.8,58.309l-3.18-11.872A100.532,100.532,0,0,1,73.09,31.627Z" transform="translate(51.604 -2.009)" fill="#fff"/>
        <path id="Caminho_22" data-name="Caminho 22" d="M51.574,36.3a55.163,55.163,0,0,1-8.3,24.77,2.767,2.767,0,1,0,4.657,2.958,60.74,60.74,0,0,0,9.149-27.266,2.767,2.767,0,1,0-5.515-.462Z" transform="translate(79.589 64.689)" fill="#fff"/>
        <path id="Caminho_23" data-name="Caminho 23" d="M21.309,108.846a2.767,2.767,0,0,0,2.067-4.6A55.255,55.255,0,0,1,39.443,18.568a2.767,2.767,0,1,0-2.549-4.912A60.789,60.789,0,0,0,19.225,107.91,2.767,2.767,0,0,0,21.309,108.846Z" transform="translate(1.53 25.214)" fill="#fff"/>
        <path id="Caminho_24" data-name="Caminho 24" d="M38.638,56.178a2.767,2.767,0,0,0,3.907-.244,43.923,43.923,0,0,0,8.911-15.588,2.767,2.767,0,1,0-5.258-1.71,38.208,38.208,0,0,1-2.012,4.879l-4.641-2.679a2.767,2.767,0,1,0-2.767,4.793l4.646,2.684A39.363,39.363,0,0,1,38.4,52.27,2.767,2.767,0,0,0,38.638,56.178Z" transform="translate(65.014 69.751)" fill="#fff"/>
        <path id="Caminho_25" data-name="Caminho 25" d="M57.044,22.649a38.764,38.764,0,0,1,7.566,1.29,2.767,2.767,0,1,0,1.472-5.333A44.26,44.26,0,0,0,28.569,97.3a2.767,2.767,0,1,0,3.213-4.506,38.692,38.692,0,0,1-9.559-9.8l4.679-2.7A2.767,2.767,0,1,0,24.136,75.5L19.484,78.18A38.523,38.523,0,0,1,15.7,64.056h5.366a2.767,2.767,0,0,0,0-5.535H15.676A38.335,38.335,0,0,1,19.47,44.389l4.666,2.693A2.767,2.767,0,1,0,26.9,42.288l-4.7-2.712A39.047,39.047,0,0,1,32.554,29.221l2.712,4.7a2.767,2.767,0,1,0,4.793-2.767l-2.693-4.666A38.335,38.335,0,0,1,51.51,22.688v5.393a2.767,2.767,0,0,0,5.535,0Z" transform="translate(12.138 32.34)" fill="#fff"/>
        <path id="Caminho_26" data-name="Caminho 26" d="M33.069,24A2.767,2.767,0,0,0,30.3,26.767V47.984l-7.748,10.33a2.767,2.767,0,0,0,4.428,3.321l8.3-11.069a2.767,2.767,0,0,0,.553-1.66V26.767A2.767,2.767,0,0,0,33.069,24Z" transform="translate(38.06 44.585)" fill="#fff"/>
        <path id="Caminho_27" data-name="Caminho 27" d="M178.615,75.116,94.484,58.969a8.1,8.1,0,0,1,3.535-6.527,9.492,9.492,0,0,1,7.73-1.4l55.908,13.961a3.118,3.118,0,0,0,.776.1,2.918,2.918,0,0,0,2.962-2.4,2.779,2.779,0,0,0-2.186-3.036L107.313,45.7a15.766,15.766,0,0,0-12.954,2.38,14.474,14.474,0,0,0-2.858,2.7,14.474,14.474,0,0,0-2.858-2.7A15.753,15.753,0,0,0,75.689,45.7L19.781,59.664a11.254,11.254,0,0,0-8.831,10.69v3.5L4.387,75.119A2.828,2.828,0,0,0,2,77.825V88.894a2.68,2.68,0,0,0,.977,2.061,3.134,3.134,0,0,0,2.305.706l38.993-3.755a2.827,2.827,0,0,0,2.66-3.037A2.935,2.935,0,0,0,43.66,82.4L7.967,85.826V80.078L88.518,64.62V75.058a2.992,2.992,0,0,0,5.967,0V64.62l80.551,15.458v5.748l-71.3-6.841a3.2,3.2,0,0,0-2.306.7,2.682,2.682,0,0,0-.985,2.056V83.36a2.881,2.881,0,0,1-2.983,2.767H85.534a2.881,2.881,0,0,1-2.983-2.767V81.738a2.68,2.68,0,0,0-.976-2.062,3.135,3.135,0,0,0-2.305-.706L55.543,81.248a2.827,2.827,0,0,0-2.66,3.037,2.935,2.935,0,0,0,3.275,2.467L76.742,84.78a8.785,8.785,0,0,0,8.792,6.882H97.468a8.789,8.789,0,0,0,8.816-6.869l71.437,6.869c.1,0,.206.014.3.014A2.881,2.881,0,0,0,181,88.908V77.825a2.828,2.828,0,0,0-2.387-2.709Zm-161.7-4.763a5.62,5.62,0,0,1,4.415-5.343L77.241,51.049a9.492,9.492,0,0,1,7.737,1.389,8.1,8.1,0,0,1,3.54,6.531l-71.6,13.74Z" transform="translate(-2 90.518)" fill="#fff"/>
      </g>
    </g>
  </g>
</svg>
