<svg xmlns="http://www.w3.org/2000/svg" width="153.298" height="182.194" viewBox="0 0 153.298 182.194">
  <g id="noun_Location_1434436" transform="translate(-12.6 -5.4)">
    <g id="Group" transform="translate(12.6 5.4)">
      <path id="Compound_Path" data-name="Compound Path" d="M59.76,54.919A19.06,19.06,0,1,0,40.7,35.86a19.06,19.06,0,0,0,19.06,19.06ZM59.76,25a4.518,4.518,0,1,1,0-.2Z" transform="translate(16.889 6.563)"/>
      <path id="Compound_Path-2" data-name="Compound Path" d="M12.6,109.1v56.564a14.346,14.346,0,0,0,21.929,12.3l28.692-17.42,50.416,27.052h3.279l.82-.41h.2l38.119-23.159a20.7,20.7,0,0,0,9.837-17.42V90.041a14.346,14.346,0,0,0-21.929-12.3l-28.692,17.42-1.025-.615c11.067-11.272,22.134-26.848,22.134-43.858,0-25-21.109-45.292-47.137-45.292S42.112,25.689,42.112,50.692a50.211,50.211,0,0,0,7.173,24.593l-26.847,16.4A20.7,20.7,0,0,0,12.6,109.1Zm95.5-8.608,3.279,1.844v74.8L67.115,153.369V97.624A141.411,141.411,0,0,0,86.995,113.61a4.1,4.1,0,0,0,4.509,0A138.539,138.539,0,0,0,108.1,100.7Zm40.169-15.986a6.148,6.148,0,0,1,9.427,5.329v56.769a12.3,12.3,0,0,1-5.943,10.452L119.58,176.732V102.338ZM89.249,13.6c21.519,0,38.939,16.6,38.939,37.095,0,25.413-30.332,48.366-38.939,54.515-8.608-5.943-38.939-29.1-38.939-54.515C50.31,30.2,67.73,13.6,89.249,13.6ZM26.741,98.649l26.847-16.4c1.64,2.254,3.484,4.509,5.124,6.763v64.557L30.02,171.2a6.148,6.148,0,0,1-9.427-5.329V109.1A12.3,12.3,0,0,1,26.741,98.649Z" transform="translate(-12.6 -5.4)"/>
    </g>
  </g>
</svg>
