<svg xmlns="http://www.w3.org/2000/svg" width="252" height="182.194" viewBox="0 0 252 182.194">
  <g id="Grupo_2" data-name="Grupo 2" transform="translate(-254.934 -1140.139)">
    <g id="noun_Laptop_3907803" transform="translate(254.934 1140.139)">
      <path id="Caminho_5" data-name="Caminho 5" d="M242.834,175.608a12.97,12.97,0,0,0,.858-4.587V38.807a12.3,12.3,0,0,0-12.025-12.53H25.2a12.3,12.3,0,0,0-12.033,12.53V171.021a13.214,13.214,0,0,0,.851,4.587H2.434v16.247c0,9.321,5.324,16.616,12.1,16.616H242.33c6.78,0,12.1-7.3,12.1-16.616V175.608h-11.6ZM20.8,38.807a4.5,4.5,0,0,1,4.4-4.579H231.675a4.491,4.491,0,0,1,4.394,4.579V171.021a4.5,4.5,0,0,1-4.394,4.587H25.2a4.5,4.5,0,0,1-4.4-4.587ZM246.787,191.855c0,4.956-2.355,8.665-4.457,8.665H14.538c-2.111,0-4.473-3.709-4.473-8.665v-8.3H246.8v8.3Z" transform="translate(-2.434 -26.277)"/>
      <path id="Caminho_6" data-name="Caminho 6" d="M82.224,81.762l8.022,8.6,3.13-2.877-8.022-8.6L97.183,72.41,63.468,58.235,74.523,92.656Zm6.484-8.874L80.846,77.22,75.969,84.6,69.363,64.622Z" transform="translate(45.683 5.872)"/>
      <rect id="Retângulo_7" data-name="Retângulo 7" width="25.902" height="4.722" transform="translate(113.045 170.092)"/>
    </g>
  </g>
</svg>
