<svg xmlns="http://www.w3.org/2000/svg" width="233.066" height="182.194" viewBox="0 0 233.066 182.194">
  <g id="noun_Printer_1927469" transform="translate(247 -373.9)">
    <path id="Caminho_7" data-name="Caminho 7" d="M-41.9,461.121V426.814H-67.539V373.9H-193.395v52.914h-25.637v34.307H-247v94.974H-13.934V461.121Zm-9.323-26.554v26.554H-67.539V434.567Zm-132.847-52.914h107.21v79.468h-107.21V381.653Zm-25.637,52.914h16.315v26.554h-16.315Zm138.674,82.763V546.4H-189.9V517.329Zm47.778,31.012H-61.713V509.576h-9.323V494.071H-189.9v15.506h-9.323v38.765h-38.456V468.874h214.42Z" transform="translate(0)"/>
    <path id="Caminho_8" data-name="Caminho 8" d="M-228.4,427.9a8.559,8.559,0,0,0-8.6,8.595,8.559,8.559,0,0,0,8.6,8.6,8.559,8.559,0,0,0,8.6-8.6A8.559,8.559,0,0,0-228.4,427.9Z" transform="translate(9.1 50.826)"/>
    <rect id="Retângulo_8" data-name="Retângulo 8" width="58.255" height="7.64" transform="translate(-159.469 398.348)"/>
    <rect id="Retângulo_9" data-name="Retângulo 9" width="58.255" height="7.64" transform="translate(-159.469 418.12)"/>
    <rect id="Retângulo_10" data-name="Retângulo 10" width="58.255" height="7.64" transform="translate(-159.469 437.515)"/>
  </g>
</svg>
