<svg xmlns="http://www.w3.org/2000/svg" width="182.248" height="182.194" viewBox="0 0 182.248 182.194">
  <g id="noun_service_3926179" transform="translate(-3.496 -3.461)">
    <path id="Caminho_28" data-name="Caminho 28" d="M16.506,33.5c-10.457,0-13,9.321-13,47.507a1.116,1.116,0,0,0,0,.255c0,.862,1.958,21.306,14.8,35.464S35.932,141.2,35.932,153.932a2.937,2.937,0,0,0,2.937,2.937H73.785a2.937,2.937,0,0,0,2.937-2.937V124.558c0-1-.117-24.733-10.712-34.72a130.336,130.336,0,0,0-11.162-9.321,42.3,42.3,0,0,1-10.085-9.5c-2.761-4.093-7.3-5.542-10.574-3.407-3.681,2.448-5.013,9.067,1.958,20.5L26.591,74.878C26.4,47.423,23.027,33.5,16.506,33.5Zm24.263,71.1a3.075,3.075,0,0,0,1.469,1.057,4.8,4.8,0,0,0,5.326-1.39c2.311-2.957.646-8.205-5.718-18.094-6.09-9.5-4.9-13.336-4.426-13.708.176-.117,1.371.157,2.467,1.782A47.9,47.9,0,0,0,51.265,85.119a129.9,129.9,0,0,1,10.712,8.93c8.753,8.244,8.871,30.235,8.871,30.451v26.495H41.689c-.7-13.042-6.227-24.008-19.034-38.186-10.966-12.18-13.12-30.333-13.3-31.958.02-37.265,2.957-41.26,6.873-41.475,2.428,2.565,4.484,18.975,4.563,36.462a2.937,2.937,0,0,0,.548,1.7Z" transform="translate(0 28.784)"/>
    <path id="Caminho_29" data-name="Caminho 29" d="M119.316,33.5c-6.521,0-9.791,13.923-10.065,41.378L99.695,88.115c6.952-11.417,5.62-18.055,1.958-20.5-3.27-2.134-7.833-.685-10.574,3.407a42.3,42.3,0,0,1-10.085,9.5,130.343,130.343,0,0,0-11.162,9.321c-10.594,9.987-10.712,33.721-10.712,34.72v29.374a2.937,2.937,0,0,0,2.937,2.937H96.973a2.937,2.937,0,0,0,3.035-2.937c0-12.729,4.935-23.166,17.624-37.207s14.746-34.6,14.8-35.464a1.115,1.115,0,0,0,0-.255C132.319,42.821,129.773,33.5,119.316,33.5Zm-6.168,79.309c-12.807,14.178-18.329,25.144-19.014,38.186H64.975V124.558c0-6.149,1.586-23.5,8.871-30.451a129.9,129.9,0,0,1,10.712-8.93A47.9,47.9,0,0,0,95.935,74.31c1.1-1.625,2.291-1.958,2.467-1.782s1.665,4.151-4.426,13.708c-6.364,9.889-8.029,15.137-5.718,18.094a4.8,4.8,0,0,0,5.326,1.39,3.075,3.075,0,0,0,1.469-1.057l19.5-27.1a2.937,2.937,0,0,0,.548-1.7c0-17.487,2.134-33.9,4.563-36.462,3.916.215,6.775,4.21,6.775,41.475C126.268,82.476,124.114,100.628,113.148,112.809Z" transform="translate(53.301 28.784)"/>
    <path id="Caminho_30" data-name="Caminho 30" d="M40.708,28.211l-6.834-2.154a2.937,2.937,0,0,0-3.584,1.7l-7.7,18.917A2.957,2.957,0,0,0,24,50.418l6.364,3.231a46.548,46.548,0,0,0,0,8.42L24.043,65.4a2.918,2.918,0,0,0-1.273,3.74L30.7,87.957A2.977,2.977,0,0,0,34.324,89.6l6.893-2.213a45.157,45.157,0,0,0,5.992,5.875l-2.134,6.815a2.977,2.977,0,0,0,1.7,3.6L65.7,111.358a3.231,3.231,0,0,0,1.116.215,2.976,2.976,0,0,0,2.624-1.606l3.114-6.325a46.547,46.547,0,0,0,8.42,0l3.329,6.266a2.918,2.918,0,0,0,3.74,1.332l18.819-7.95a2.937,2.937,0,0,0,1.645-3.6l-2.232-6.815a46.351,46.351,0,0,0,5.875-5.992l6.815,2.134a2.937,2.937,0,0,0,3.584-1.7l7.7-18.917a2.957,2.957,0,0,0-1.41-3.74l-6.364-3.231a46.546,46.546,0,0,0,0-8.42l6.325-3.329a2.918,2.918,0,0,0,1.332-3.74l-7.833-18.819a2.976,2.976,0,0,0-3.623-1.645L111.714,27.7a45.157,45.157,0,0,0-5.992-5.875l2.134-6.815a2.937,2.937,0,0,0-1.625-3.642l-18.917-7.7a2.957,2.957,0,0,0-3.74,1.41l-3.192,6.364a46.547,46.547,0,0,0-8.42,0L68.633,5.182a2.918,2.918,0,0,0-3.74-1.332L46.035,11.8a2.937,2.937,0,0,0-1.645,3.6l2.232,6.736a45.039,45.039,0,0,0-5.914,6.071Zm11.123-2.663a2.918,2.918,0,0,0,1-3.231l-1.958-6.168,13.845-5.757,3.016,5.738a2.9,2.9,0,0,0,3.016,1.527,40.476,40.476,0,0,1,10.986,0,2.957,2.957,0,0,0,3-1.586l2.937-5.777,13.9,5.659-1.958,6.168a2.937,2.937,0,0,0,1.057,3.231,40.5,40.5,0,0,1,7.833,7.715,2.918,2.918,0,0,0,3.212.822l6.168-1.958,5.875,13.845-5.738,3.016a2.9,2.9,0,0,0-1.527,3.016,40.476,40.476,0,0,1,0,10.986,2.937,2.937,0,0,0,1.586,3l5.777,2.937-5.659,13.9-6.168-1.958A2.937,2.937,0,0,0,108.8,81.73a41.122,41.122,0,0,1-7.715,7.833,2.918,2.918,0,0,0-1,3.231l1.958,6.168-13.825,5.816L85.2,99.041a2.918,2.918,0,0,0-2.859-1.527,40.477,40.477,0,0,1-10.986,0,2.937,2.937,0,0,0-3,1.586l-2.937,5.777-13.9-5.659,1.958-6.168a2.937,2.937,0,0,0-1.057-3.231A40.5,40.5,0,0,1,44.585,82.1a2.918,2.918,0,0,0-3.368-.92L35.049,83.14,29.174,69.295l5.738-3.016A2.9,2.9,0,0,0,36.5,63.264a40.476,40.476,0,0,1,0-10.986,2.937,2.937,0,0,0-1.586-3l-5.777-2.937,5.659-13.9L40.963,34.4a2.937,2.937,0,0,0,3.231-1.057,41.123,41.123,0,0,1,7.637-7.794Z" transform="translate(18.096 0)"/>
    <path id="Caminho_31" data-name="Caminho 31" d="M53.423,20.26A22.774,22.774,0,0,1,72.809,34.516a2.937,2.937,0,0,0,2.722,1.841,3.035,3.035,0,0,0,1.1-.215,2.937,2.937,0,0,0,1.625-3.819A28.551,28.551,0,0,0,53.912,14.405a2.948,2.948,0,1,0-.49,5.875Z" transform="translate(45.251 10.477)"/>
    <path id="Caminho_32" data-name="Caminho 32" d="M61.163,65.057A22.813,22.813,0,1,0,38.35,42.243,22.813,22.813,0,0,0,61.163,65.057ZM53.331,27.185a16.606,16.606,0,0,1,7.833-1.958,16.939,16.939,0,1,1-7.833,1.958Z" transform="translate(33.398 15.302)"/>
  </g>
</svg>
