<svg xmlns="http://www.w3.org/2000/svg" width="233.066" height="245.332" viewBox="0 0 233.066 245.332">
  <g id="noun_Domotics_3394253" transform="translate(-222 -332.999)">
    <g id="Grupo_3" data-name="Grupo 3" transform="translate(222 332.999)">
      <rect id="Retângulo_33" data-name="Retângulo 33" width="8.178" height="8.178" transform="translate(179.637 61.334)"/>
      <path id="Caminho_21" data-name="Caminho 21" d="M380.155,104a20.345,20.345,0,0,0-20.189,17.2l8.076,1.29a12.27,12.27,0,0,1,24.226,0l8.076-1.291A20.345,20.345,0,0,0,380.155,104Z" transform="translate(-196.429 -59.022)"/>
      <path id="Caminho_22" data-name="Caminho 22" d="M368.373,80.177a28.594,28.594,0,0,1,25.285,15.2l7.219-3.842a36.812,36.812,0,0,0-65.01,0l7.219,3.842a28.6,28.6,0,0,1,25.286-15.2Z" transform="translate(-184.648 -43.377)"/>
      <path id="Caminho_23" data-name="Caminho 23" d="M52.089,130.487H64.355V200h8.178v-69.51h77.688v20.444H158.4V130.487h77.688V200h8.178v-69.51h12.267a4.089,4.089,0,0,0,3.8-5.607l-4.907-12.267-7.592,3.037,2.663,6.659H158.4V89.6h16.355V81.421H158.4V77.332a8.187,8.187,0,0,1,8.178-8.178h12.438a49.066,49.066,0,1,0,0-8.178H166.577a16.374,16.374,0,0,0-16.355,16.355v4.089H68.444a4.089,4.089,0,0,0-3.8,2.57L48.292,124.88a4.089,4.089,0,0,0,3.8,5.607ZM227.91,24.177a40.889,40.889,0,1,1-40.889,40.889A40.889,40.889,0,0,1,227.91,24.177ZM71.212,89.6h79.009V122.31H58.128Z" transform="translate(-43.911 -15.999)"/>
      <path id="Caminho_24" data-name="Caminho 24" d="M252.62,365.51c0-10.159-5.618-20.444-16.355-20.444S219.91,355.351,219.91,365.51c0,2.292-.883,3.278-2.88,5.289-2.235,2.252-5.3,5.337-5.3,11.184a15.274,15.274,0,0,0,2.262,8.06H183.11V377.777a4.089,4.089,0,0,0-4.089-4.089h-4.089V320.533a24.533,24.533,0,0,0-49.066,0v53.155h-4.089a4.089,4.089,0,0,0-4.089,4.089v12.267H86.8a15.274,15.274,0,0,0,2.262-8.06c0-5.848-3.062-8.932-5.3-11.184-2-2.011-2.88-3-2.88-5.289,0-10.159-5.618-20.444-16.355-20.444S48.178,355.351,48.178,365.51c0,2.292-.883,3.278-2.88,5.289-2.236,2.252-5.3,5.337-5.3,11.184a15.518,15.518,0,0,0,6.168,12.4,17.581,17.581,0,0,0,10.187,3.833H244.443a17.581,17.581,0,0,0,10.187-3.833,15.519,15.519,0,0,0,6.168-12.4c0-5.848-3.062-8.932-5.3-11.184C253.5,368.789,252.62,367.8,252.62,365.51ZM134.044,320.533a16.355,16.355,0,0,1,32.711,0v53.155H134.044Zm-8.178,61.333h49.066v8.178H125.866Zm-69.511,8.178c-2.252,0-8.178-2.478-8.178-8.06,0-2.377.9-3.38,2.924-5.422,2.217-2.233,5.254-5.292,5.254-11.051,0-9.7,5.349-12.267,8.178-12.267,6.469,0,8.178,8.024,8.178,12.267,0,5.759,3.036,8.818,5.254,11.051,2.027,2.044,2.924,3.045,2.924,5.422,0,5.581-5.926,8.06-8.177,8.06Zm188.087,0H228.087c-2.252,0-8.178-2.478-8.178-8.06,0-2.377.9-3.38,2.924-5.422,2.218-2.233,5.254-5.292,5.254-11.051,0-9.7,5.349-12.267,8.178-12.267,6.469,0,8.178,8.024,8.178,12.267,0,5.759,3.036,8.818,5.254,11.051,2.027,2.044,2.924,3.045,2.924,5.422C252.62,387.565,246.7,390.044,244.443,390.044Z" transform="translate(-40 -152.889)"/>
      <rect id="Retângulo_34" data-name="Retângulo 34" width="8.178" height="8.178" transform="translate(102.221 179.91)"/>
      <path id="Caminho_25" data-name="Caminho 25" d="M120,308.089v40.889a4.089,4.089,0,0,0,4.089,4.089h24.533a4.089,4.089,0,0,0,4.089-4.089V308.089A4.089,4.089,0,0,0,148.622,304H124.089A4.089,4.089,0,0,0,120,308.089Zm8.178,36.8v-8.178h16.355v8.178Zm16.355-32.711v16.355H128.178V312.178Z" transform="translate(-79.111 -156.8)"/>
      <path id="Caminho_26" data-name="Caminho 26" d="M328,308.089v40.889a4.089,4.089,0,0,0,4.089,4.089h24.533a4.089,4.089,0,0,0,4.089-4.089V308.089A4.089,4.089,0,0,0,356.622,304H332.089A4.089,4.089,0,0,0,328,308.089Zm8.178,36.8v-8.178h16.355v8.178Zm16.355-32.711v16.355H336.178V312.178Z" transform="translate(-180.801 -156.8)"/>
      <rect id="Retângulo_35" data-name="Retângulo 35" width="8.178" height="8.178" transform="translate(53.155 130.844)"/>
      <rect id="Retângulo_36" data-name="Retângulo 36" width="8.178" height="8.178" transform="translate(159.465 130.844)"/>
    </g>
  </g>
</svg>
