<svg xmlns="http://www.w3.org/2000/svg" width="229.36" height="207.925" viewBox="0 0 229.36 207.925">
  <g id="noun_not_found_2503982" data-name="noun_not found_2503982" transform="translate(259 95.262)">
    <g id="Grupo_3" data-name="Grupo 3" transform="translate(-269 -109)">
      <path id="Caminho_21" data-name="Caminho 21" d="M178.137,176.45l-25.251-38.882a11.664,11.664,0,0,0-12.1-5.083l-7.441-11.458a2.7,2.7,0,0,0-.307-.314,53.593,53.593,0,0,0,.191-78.64A53.883,53.883,0,0,0,102.356,27.9a52.738,52.738,0,0,0-33.8,7.464c-.5.276-.939.538-1.4.834a2.671,2.671,0,0,0-.26.188A52.609,52.609,0,0,0,50.947,52.521c-.308.438-.563.861-.857,1.352a53.587,53.587,0,0,0-3.918,46.792A50.862,50.862,0,0,0,51.2,110.53a53.9,53.9,0,0,0,66.367,20.207,2.708,2.708,0,0,0,.156.4l7.435,11.449a11.552,11.552,0,0,0-.275,13.086l25.251,38.909a2.868,2.868,0,0,0,3.962.847l23.194-15a2.867,2.867,0,0,0,.849-3.969ZM56,107.394A45.094,45.094,0,0,1,51.522,98.6a47.668,47.668,0,0,1-3.1-21.048,48.189,48.189,0,0,1,6.609-20.777c.2-.33.378-.637.68-1.075A47.142,47.142,0,0,1,70.168,41.1a2.638,2.638,0,0,0,.238-.172c.307-.19.617-.374,1.043-.612A47.22,47.22,0,0,1,101.722,33.6,48.115,48.115,0,0,1,129.3,46.258,47.9,47.9,0,0,1,122.6,121.62h0A48.241,48.241,0,0,1,56,107.394Zm69.71,19.043c1.021-.659,1.975-1.39,2.941-2.108l6.869,10.577-6,3.867-6.84-10.532C123.7,127.672,124.713,127.08,125.708,126.437Zm27.677,62.616-23.7-36.519a5.826,5.826,0,0,1-.837-4.429,5.956,5.956,0,0,1,2.72-3.822l8.266-5.336a5.9,5.9,0,0,1,3.235-.966,6.018,6.018,0,0,1,1.249.132,5.912,5.912,0,0,1,3.762,2.583l23.684,36.469Z" transform="translate(60.762 25.781)"/>
      <path id="Caminho_22" data-name="Caminho 22" d="M131.323,83.17a43.04,43.04,0,0,0-20.111-45.822,43.281,43.281,0,0,0-17.2-5.719A41.992,41.992,0,0,0,67.07,37.6l-1.2.728A42.035,42.035,0,0,0,53.006,51.337l-.636,1A42.7,42.7,0,0,0,49.278,89.7a40.188,40.188,0,0,0,3.98,7.8,42.448,42.448,0,0,0,14.1,13.562,42.779,42.779,0,0,0,45.288-.888A42.552,42.552,0,0,0,131.323,83.17Zm-21.787,22.193A37.2,37.2,0,0,1,58.058,94.37a34.632,34.632,0,0,1-3.431-6.734,36.976,36.976,0,0,1,2.626-32.293l.6-.939A36.277,36.277,0,0,1,68.916,43.192l1.144-.7a36.255,36.255,0,0,1,19.086-5.408,38,38,0,0,1,19.144,5.192,37.842,37.842,0,0,1,12.237,11.744,37,37,0,0,1-10.991,51.337Z" transform="translate(67.882 32.884)"/>
      <path id="Caminho_23" data-name="Caminho 23" d="M179.872,164.788H15.734V45.084H213.079v115a2.867,2.867,0,1,0,5.734,0V16.605a2.867,2.867,0,0,0-2.867-2.867H12.867A2.867,2.867,0,0,0,10,16.605v151.05a2.867,2.867,0,0,0,2.867,2.867h167a2.867,2.867,0,0,0,0-5.734ZM213.079,19.472V39.35H15.734V19.472H213.079Z" transform="translate(0 0)"/>
      <path id="Caminho_24" data-name="Caminho 24" d="M22.029,31.773A7.613,7.613,0,1,0,14.4,24.16,7.631,7.631,0,0,0,22.029,31.773Zm0-9.493a1.879,1.879,0,1,1-1.9,1.88A1.891,1.891,0,0,1,22.029,22.28Z" transform="translate(8.208 5.243)"/>
      <path id="Caminho_25" data-name="Caminho 25" d="M28.523,31.773a7.613,7.613,0,1,0-7.632-7.613A7.631,7.631,0,0,0,28.523,31.773Zm0-9.493a1.879,1.879,0,1,1-1.9,1.88A1.891,1.891,0,0,1,28.523,22.28Z" transform="translate(20.333 5.243)"/>
      <path id="Caminho_26" data-name="Caminho 26" d="M35.017,31.773a7.613,7.613,0,1,0-7.632-7.613A7.631,7.631,0,0,0,35.017,31.773Zm0-9.493a1.879,1.879,0,1,1-1.9,1.88A1.891,1.891,0,0,1,35.017,22.28Z" transform="translate(32.458 5.243)"/>
      <path id="Caminho_27" data-name="Caminho 27" d="M34.208,55.969A10.423,10.423,0,1,0,44.632,66.391,10.434,10.434,0,0,0,34.208,55.969Zm0,15.112a4.689,4.689,0,1,1,4.69-4.69A4.694,4.694,0,0,1,34.208,71.081Z" transform="translate(25.738 78.845)"/>
      <path id="Caminho_28" data-name="Caminho 28" d="M52.942,43.316a15.456,15.456,0,1,0-30.909.283l.238,2.261c0,.1,0,.216.014.311l4.772,47.521a10.418,10.418,0,0,0,20.832.286L52.928,43.6A2.744,2.744,0,0,0,52.942,43.316ZM42.17,93.692a4.7,4.7,0,0,1-4.69,4.69,4.784,4.784,0,0,1-4.7-4.975L28.005,45.885c0-.094,0-.214-.014-.308l-.238-2.261a9.727,9.727,0,0,1,19.453-.132Z" transform="translate(22.466 26.357)"/>
      <path id="Caminho_29" data-name="Caminho 29" d="M58.976,42.519a2.862,2.862,0,0,0,1.116-.228,25.679,25.679,0,0,1,2.469-.9,2.866,2.866,0,0,0-1.677-5.482,30.9,30.9,0,0,0-3.027,1.1,2.868,2.868,0,0,0,1.119,5.509Z" transform="translate(86.081 41.16)"/>
      <path id="Caminho_30" data-name="Caminho 30" d="M81.487,87.619A25.735,25.735,0,0,1,64.041,42.964a2.867,2.867,0,1,0-3.889-4.214,31.469,31.469,0,0,0,21.335,54.6,2.867,2.867,0,0,0,0-5.734Z" transform="translate(74.711 45.279)"/>
    </g>
  </g>
</svg>
