<svg xmlns="http://www.w3.org/2000/svg" width="233.066" height="104.836" viewBox="0 0 233.066 104.836">
  <g id="noun_Projector_3907840" transform="translate(-0.5 -9.304)">
    <path id="Caminho_21" data-name="Caminho 21" d="M50.3,11.453A34.035,34.035,0,1,0,84.334,45.481,34.077,34.077,0,0,0,50.3,11.453Zm0,61.012a26.977,26.977,0,1,1,26.97-26.985A27.015,27.015,0,0,1,50.3,72.465Z" transform="translate(98.962 13.503)"/>
    <path id="Caminho_22" data-name="Caminho 22" d="M217,17.978H177.258a49.553,49.553,0,0,0-56.016,0H17.062A16.586,16.586,0,0,0,.5,34.548v48.9a16.5,16.5,0,0,0,8.347,14.3c-.015,1.384-.029,2.688-.029,2.942a12.063,12.063,0,0,0,3.511,8.543c3.241,3.256,8.412,4.9,15.36,4.9,17.939,0,18.878-11.165,18.878-13.409v-.706H121.25a49.541,49.541,0,0,0,56.009,0H187.5v.721c0,2.236.94,13.4,18.878,13.4,6.948,0,12.119-1.646,15.36-4.9a12.016,12.016,0,0,0,3.511-8.536c0-.262-.015-1.566-.029-2.957a16.492,16.492,0,0,0,8.347-14.29V34.548A16.588,16.588,0,0,0,217,17.978ZM7.565,34.548a9.512,9.512,0,0,1,9.5-9.5h96a49.433,49.433,0,0,0,.007,67.91H17.062a9.512,9.512,0,0,1-9.5-9.5v-48.9Zm31.945,66.162c-.015,4.1-4.21,6.358-11.821,6.358-4.938,0-8.521-.976-10.357-2.826a4.855,4.855,0,0,1-1.449-3.547v-.8c.4.029.779.117,1.18.117H39.509Zm67.108-41.726a42.633,42.633,0,1,1,42.629,42.636A42.681,42.681,0,0,1,106.618,58.983ZM218.183,100.7a4.861,4.861,0,0,1-1.449,3.54c-1.835,1.85-5.419,2.826-10.357,2.826-7.611,0-11.806-2.258-11.821-6.351v-.706H217c.408,0,.787-.087,1.187-.117ZM226.5,83.441a9.518,9.518,0,0,1-9.512,9.5H185.43a49.442,49.442,0,0,0,0-67.91h31.559a9.518,9.518,0,0,1,9.512,9.5Z" transform="translate(0 0)"/>
    <rect id="Retângulo_33" data-name="Retângulo 33" width="49.585" height="7.065" transform="translate(23.989 40.411)"/>
    <rect id="Retângulo_34" data-name="Retângulo 34" width="49.585" height="7.065" transform="translate(23.989 55.466)"/>
    <rect id="Retângulo_35" data-name="Retângulo 35" width="49.585" height="7.065" transform="translate(23.989 70.513)"/>
  </g>
</svg>
